<svg width="512" height="512" viewBox="0 0 512 512" fill="none" xmlns="http://www.w3.org/2000/svg">
  <rect width="512" height="512" rx="120" fill="#0B1220"/>
  <rect x="52" y="52" width="408" height="408" rx="104" fill="url(#paint0_linear_1_2)"/>
  <circle cx="256" cy="190" r="84" fill="url(#paint1_linear_1_2)"/>
  <path d="M164 338C164 303.758 191.758 276 226 276H286C320.242 276 348 303.758 348 338V344C348 359.464 335.464 372 320 372H192C176.536 372 164 359.464 164 344V338Z" fill="white" fill-opacity="0.92"/>
  <path d="M214 188C214 164.804 232.804 146 256 146C279.196 146 298 164.804 298 188C298 211.196 279.196 230 256 230C232.804 230 214 211.196 214 188Z" fill="white"/>
  <path d="M116 124C116 119.582 119.582 116 124 116H172C176.418 116 180 119.582 180 124V140C180 144.418 176.418 148 172 148H124C119.582 148 116 144.418 116 140V124Z" fill="white" fill-opacity="0.22"/>
  <path d="M332 124C332 119.582 335.582 116 340 116H388C392.418 116 396 119.582 396 124V140C396 144.418 392.418 148 388 148H340C335.582 148 332 144.418 332 140V124Z" fill="white" fill-opacity="0.22"/>
  <defs>
    <linearGradient id="paint0_linear_1_2" x1="90" y1="76" x2="404" y2="432" gradientUnits="userSpaceOnUse">
      <stop stop-color="#1687FF"/>
      <stop offset="1" stop-color="#17C4AB"/>
    </linearGradient>
    <linearGradient id="paint1_linear_1_2" x1="190" y1="116" x2="322" y2="264" gradientUnits="userSpaceOnUse">
      <stop stop-color="white" stop-opacity="0.88"/>
      <stop offset="1" stop-color="white" stop-opacity="0.36"/>
    </linearGradient>
  </defs>
</svg>
